<svg id="Layer_1" data-name="Layer 1" xmlns="http://www.w3.org/2000/svg" viewBox="0 0 505.97461 127.2417"><defs><style>.cls-1{fill:#fff;}</style></defs><title>logo</title><path class="cls-1" d="M261.526,219.63441A22.68483,22.68483,0,0,0,245.17762,213h-.29057a22.61622,22.61622,0,0,0-19.73485,11.48669,23.42606,23.42606,0,0,0-3.05011,11.70894A21.94747,21.94747,0,0,0,228.80838,252.33a22.34637,22.34637,0,0,0,16.36924,6.65718v.003h.06666A23.08677,23.08677,0,0,0,261.526,219.63441Zm-7.01737,32.63632a18.57342,18.57342,0,0,1-9.331,2.46008h-.092a18.35919,18.35919,0,0,1-18.41877-18.53518,19.07143,19.07143,0,0,1,2.42466-9.557,18.47118,18.47118,0,0,1,6.79649-6.82118,17.98729,17.98729,0,0,1,9.19762-2.53214h.092a18.66425,18.66425,0,0,1,9.27175,2.53214,18.09557,18.09557,0,0,1,6.81731,6.73961,18.51872,18.51872,0,0,1,2.43063,9.434,18.93184,18.93184,0,0,1-2.43063,9.51824A17.6546,17.6546,0,0,1,254.5086,252.27073Zm-56.70623-32.40949-15.36378,38.58352-11.98814-32.58809L157.6447,258.40635,142.03206,215.681h4.94787L157.833,246.10829l12.73741-32.56514L182.57582,246.172l11.96076-30.491h4.9315Zm23.77045,25.47336a11.89952,11.89952,0,0,1-3.7333,8.87465,13.41766,13.41766,0,0,1-17.26346.91273,11.63532,11.63532,0,0,1-2.77369-3.327,16.2878,16.2878,0,0,1-1.66289-4.37957l1.66289-.5159,2.73367-.83591a10.76025,10.76025,0,0,0,2.921,5.60814,7.38637,7.38637,0,0,0,5.25014,1.95641,8.05388,8.05388,0,0,0,5.93129-2.35056,7.87566,7.87566,0,0,0,2.35052-5.87931,5.31176,5.31176,0,0,0-2.31215-4.6966,48.47226,48.47226,0,0,0-5.60515-3.23527l-.724-.29114-.74687-.36763a30.20135,30.20135,0,0,1-6.39954-3.87349,7.98713,7.98713,0,0,1-2.9782-6.6691,9.59724,9.59724,0,0,1,3.29316-7.5148,12.27293,12.27293,0,0,1,8.4677-2.92626,10.75245,10.75245,0,0,1,5.68895,1.61256,12.61462,12.61462,0,0,1,4.43286,4.72757l-3.594,2.31809a2.58877,2.58877,0,0,0-.495-.615l-.43286-.65966a8.18836,8.18836,0,0,0-2.56247-2.38537,6.59322,6.59322,0,0,0-3.22484-.73291,7.60283,7.60283,0,0,0-4.96869,1.67566,5.42237,5.42237,0,0,0-2.04511,4.36171,4.69317,4.69317,0,0,0,2.02368,4.09855,45.87375,45.87375,0,0,0,5.12644,2.97747l1.09148.48672,1.15013.54476a28.95212,28.95212,0,0,1,6.40472,3.96131C220.56961,239.82206,221.57281,242.21187,221.57281,245.3346Zm17.88266-5.68879L226.947,239.622a20.24945,20.24945,0,0,1-.26853-2.70389l11.02365.02231,7.51391-16.72522,8.35579,20.36057,3.34065-6.01417,6.73427-.02737c.0357.47868.0506.9654.0506,1.45688q0,.63228-.03573,1.24938l-5.15446.01847-5.30568,9.55485-8.09647-19.7432Zm44.10411,27.4512a7.06,7.06,0,0,0,.181,1.59473h-22.723l12.86571-13.91656a40.35736,40.35736,0,0,0,5.097-6.21868,8.27435,8.27435,0,0,0,1.17945-4.25932,6.59522,6.59522,0,0,0-2.10882-4.89218,7.27549,7.27549,0,0,0-5.20655-2.04749,7.56413,7.56413,0,0,0-3.17305.64033c.07264-.82847.11581-1.645.11581-2.4863,0-.30511-.00743-.615-.01936-.921a12.22422,12.22422,0,0,1,3.27517-.44832,10.072,10.072,0,0,1,10.3982,10.08233,10.89232,10.89232,0,0,1-1.38128,5.3679,39.51313,39.51313,0,0,1-5.34585,6.78786l-8.37214,9.04343h15.4163A7.25473,7.25473,0,0,0,283.55958,267.097ZM134.60938,292.2793c0,20.12158-12.229,30.78955-27.14648,30.78955-15.438,0-26.2793-11.96875-26.2793-29.66211,0-18.56055,11.53516-30.70264,27.14648-30.70264C124.28857,262.7041,134.60938,274.93311,134.60938,292.2793Zm-45.35986.9541c0,12.48926,6.76465,23.67773,18.647,23.67773,11.96875,0,18.73389-11.01514,18.73389-24.28516,0-11.62158-6.07129-23.76416-18.647-23.76416C95.49414,268.86182,89.24951,280.397,89.24951,293.2334Zm54.89941.60693c0-5.37744-.17383-9.71387-.34717-13.70361h6.85156l.34717,7.19873h.17334c3.12256-5.1167,8.06592-8.15234,14.918-8.15234,10.14746,0,17.77979,8.58643,17.77979,21.33545,0,15.09131-9.19336,22.55029-19.08105,22.55029-5.55078,0-10.40771-2.42871-12.92285-6.5918h-.17334V339.2876h-7.54541Zm7.54541,11.18848a17.19183,17.19183,0,0,0,.34668,3.12207,11.77754,11.77754,0,0,0,11.44873,8.93359c8.06592,0,12.74951-6.5918,12.74951-16.21875,0-8.41309-4.42334-15.61182-12.48926-15.61182a12.17826,12.17826,0,0,0-11.53516,9.4541,12.36829,12.36829,0,0,0-.52051,3.12207Zm46.05225-2.51514c.17334,10.3208,6.76514,14.5708,14.39746,14.5708a27.59929,27.59929,0,0,0,11.62207-2.16846l1.30078,5.46387a33.99557,33.99557,0,0,1-13.96338,2.60205c-12.92334,0-20.64209-8.49951-20.64209-21.16211s7.4585-22.63672,19.688-22.63672c13.70313,0,17.34619,12.05518,17.34619,19.77441a28.8538,28.8538,0,0,1-.26025,3.55615Zm22.37646-5.46436c.08691-4.85693-1.99463-12.40234-10.58105-12.40234-7.71875,0-11.10156,7.11182-11.7085,12.40234Zm16.82471-5.55078c0-4.33643-.08691-7.89209-.34717-11.36182h6.76514l.43359,6.93848h.17334a15.437,15.437,0,0,1,13.877-7.89209c5.811,0,14.83105,3.46924,14.83105,17.86621v25.06543h-7.63232V297.917c0-6.76514-2.51514-12.40283-9.71387-12.40283a10.84423,10.84423,0,0,0-10.23437,7.80615,10.97839,10.97839,0,0,0-.52,3.55566v25.23877h-7.63232Zm66.78076-27.06006a73.11624,73.11624,0,0,1,13.79-1.21387c7.54541,0,12.40234,1.30078,16.04492,4.24951a12.25721,12.25721,0,0,1,4.85742,10.32129c0,5.63721-3.72949,10.58105-9.8877,12.83594v.17334c5.55078,1.3877,12.05566,5.98438,12.05566,14.65771a15.75685,15.75685,0,0,1-4.94336,11.7085c-4.07666,3.72949-10.668,5.46436-20.2085,5.46436a88.24659,88.24659,0,0,1-11.7085-.69385Zm7.54541,23.938h6.85156c7.97949,0,12.6626-4.16309,12.6626-9.80078,0-6.85156-5.20361-9.54053-12.83594-9.54053a32.35924,32.35924,0,0,0-6.67822.52051Zm0,28.01416a40.31527,40.31527,0,0,0,6.33154.34668c7.80566,0,15.00439-2.86182,15.00439-11.36182,0-7.979-6.85205-11.2749-15.09131-11.2749h-6.24463Zm62.44482,5.72412-.60693-5.29053h-.26025a15.63487,15.63487,0,0,1-12.83643,6.24463c-8.49951,0-12.83594-5.98437-12.83594-12.05566,0-10.14746,9.02-15.69824,25.23877-15.61182v-.86719c0-3.46924-.9541-9.71387-9.54053-9.71387a20.91568,20.91568,0,0,0-10.92822,3.12256l-1.73437-5.03076a26.05294,26.05294,0,0,1,13.79-3.729c12.83643,0,15.9585,8.75977,15.9585,17.17236v15.69824a59.094,59.094,0,0,0,.69385,10.061Zm-1.12744-21.42236c-8.32617-.17383-17.77979,1.30078-17.77979,9.45361,0,4.94336,3.2959,7.28516,7.19873,7.28516a10.44446,10.44446,0,0,0,10.14746-7.0249,7.96555,7.96555,0,0,0,.43359-2.42871Zm19.687-9.19385c0-4.33643-.08691-7.89209-.34717-11.36182h6.76514l.43359,6.93848h.17334a15.43672,15.43672,0,0,1,13.87646-7.89209c5.81152,0,14.832,3.46924,14.832,17.86621v25.06543h-7.63281V297.917c0-6.76514-2.51562-12.40283-9.71387-12.40283a10.84423,10.84423,0,0,0-10.23437,7.80615,10.97839,10.97839,0,0,0-.52,3.55566v25.23877h-7.63232Zm55.67969,7.89258h.17383c1.04-1.47412,2.51465-3.29541,3.72949-4.77l12.31543-14.48437h9.19336l-16.21875,17.25977L475.625,322.11475h-9.28027l-14.4834-20.12158-3.90332,4.33643v15.78516h-7.5459v-61.5791h7.5459ZM491.0625,268.3418a4.72724,4.72724,0,0,1-9.4541,0,4.65093,4.65093,0,0,1,4.77051-4.77051A4.53033,4.53033,0,0,1,491.0625,268.3418Zm-8.5,53.77295v-41.978h7.63281v41.978Zm20.29395-30.61621c0-4.33643-.08691-7.89209-.34668-11.36182h6.76465l.43457,6.93848h.17285a15.43755,15.43755,0,0,1,13.877-7.89209c5.81152,0,14.83105,3.46924,14.83105,17.86621v25.06543H530.958V297.917c0-6.76514-2.51562-12.40283-9.71387-12.40283A11.19267,11.19267,0,0,0,510.48926,296.876v25.23877h-7.63281Zm84.30176-11.36182c-.17383,3.03564-.34668,6.41846-.34668,11.53564v24.37109c0,9.62744-1.9082,15.5249-5.98437,19.16748-4.07617,3.81641-9.97461,5.03076-15.26465,5.03076-5.03027,0-10.58105-1.21436-13.96387-3.46924l1.9082-5.811a23.67412,23.67412,0,0,0,12.31543,3.29541c7.80566,0,13.53027-4.07617,13.53027-14.65723V314.916h-.17383c-2.3418,3.90283-6.85156,7.02539-13.35645,7.02539-10.40723,0-17.86621-8.84668-17.86621-20.46875,0-14.22363,9.28027-22.28955,18.90723-22.28955,7.28516,0,11.27539,3.81592,13.09668,7.28516h.17285l.34766-6.33154Zm-7.89258,16.56592a10.87443,10.87443,0,0,0-.43359-3.46924,10.9944,10.9944,0,0,0-10.668-8.06592c-7.28516,0-12.48926,6.15771-12.48926,15.87158,0,8.23926,4.16309,15.09131,12.40234,15.09131a11.15673,11.15673,0,0,0,10.58105-7.80566,13.25326,13.25326,0,0,0,.60742-4.07666Z" transform="translate(-81.18359 -213)"/></svg>