<?xml version="1.0" encoding="utf-8"?>
<!-- Generator: Adobe Illustrator 16.0.0, SVG Export Plug-In . SVG Version: 6.00 Build 0)  -->
<!DOCTYPE svg PUBLIC "-//W3C//DTD SVG 1.1//EN" "http://www.w3.org/Graphics/SVG/1.1/DTD/svg11.dtd">
<svg version="1.1" id="Layer_1" xmlns="http://www.w3.org/2000/svg" xmlns:xlink="http://www.w3.org/1999/xlink" x="0px" y="0px"
	 width="299.152px" height="194.068px" viewBox="0 0 299.152 194.068" enable-background="new 0 0 299.152 194.068"
	 xml:space="preserve">
<g>
	<g>
		<g>
			<path fill="#231F20" d="M222.444,65.251c-6.594-6.519-14.766-9.851-24.5-9.943c-0.133,0-0.303,0-0.434,0
				c-6.119,0-11.814,1.521-17.076,4.577c-5.287,3.056-9.428,7.265-12.496,12.636c-3.041,5.388-4.566,11.24-4.566,17.545
				c0,9.45,3.357,17.509,10.047,24.179c6.664,6.652,14.871,9.961,24.525,9.975v0.004c0.049,0,0.059,0,0.104,0
				c9.594,0,17.744-3.316,24.414-10.037c6.684-6.679,10.035-14.818,10.035-24.426C232.497,80.062,229.132,71.894,222.444,65.251z
				 M211.931,114.153c-4.289,2.445-8.943,3.68-13.986,3.688c-0.049,0-0.072,0-0.133,0c-7.605,0-14.113-2.682-19.529-8.045
				c-5.387-5.354-8.074-11.934-8.074-19.73c0-5.259,1.209-10.033,3.635-14.32c2.463-4.258,5.844-7.692,10.189-10.221
				c4.338-2.525,8.912-3.796,13.779-3.796c0.061,0,0.092,0,0.133,0c4.898,0.027,9.523,1.304,13.896,3.796
				c4.383,2.528,7.805,5.885,10.215,10.098c2.432,4.208,3.646,8.927,3.646,14.138c0,5.223-1.215,9.983-3.646,14.263
				C219.646,108.3,216.261,111.687,211.931,114.153z"/>
		</g>
		<g>
			<polygon fill="#FF5000" points="129.455,59.325 126.959,59.325 122.066,59.325 104.141,105.015 86.151,56.123 67.064,104.92 
				50.802,59.325 43.388,59.325 66.781,123.349 85.972,74.574 103.938,123.406 126.959,65.589 			"/>
			<path fill="#FF5000" d="M158.093,93.065c-3-2.429-6.187-4.412-9.599-5.938l-1.725-0.817l-1.636-0.729
				c-3.12-1.586-5.68-3.087-7.681-4.461c-2.02-1.419-3.031-3.459-3.031-6.142c0-2.67,1.032-4.847,3.066-6.536
				c2.041-1.67,4.526-2.511,7.444-2.511c1.895,0,3.498,0.365,4.832,1.098c1.349,0.754,2.634,1.928,3.842,3.576l0.65,0.987
				c0.182,0.125,0.416,0.446,0.738,0.922l5.387-3.473c-1.771-3.11-3.953-5.463-6.643-7.086c-2.636-1.604-5.484-2.416-8.525-2.416
				c-5.186,0-9.42,1.475-12.688,4.386c-3.293,2.929-4.935,6.68-4.935,11.262c0,4.302,1.472,7.643,4.464,9.992
				c2.99,2.357,6.184,4.283,9.586,5.805l1.119,0.551l1.088,0.436c3.272,1.641,6.073,3.26,8.395,4.85
				c2.32,1.591,3.464,3.925,3.464,7.037c0,3.537-1.145,6.472-3.518,8.811c-2.351,2.339-5.305,3.521-8.89,3.521
				c-3.168,0-5.793-0.987-7.866-2.93c-2.072-1.936-3.529-4.732-4.377-8.401l-4.096,1.251l-2.493,0.771
				c0.577,2.459,1.399,4.649,2.493,6.562c1.123,1.976,2.496,3.637,4.154,4.986c3.243,2.704,7.36,4.061,12.357,4.061
				c5.316,0,9.797-1.807,13.515-5.426c3.727-3.621,5.594-8.065,5.594-13.3C162.579,99.083,161.073,95.5,158.093,93.065z"/>
		</g>
		<path fill="#FF5000" d="M211.931,114.153c-4.289,2.445-8.943,3.68-13.986,3.688c-0.049,0-0.072,0-0.133,0
			c-7.605,0-14.113-2.682-19.529-8.045c-5.387-5.354-8.074-11.934-8.074-19.73c0-5.259,1.209-10.033,3.635-14.32
			c2.463-4.258,5.844-7.692,10.189-10.221c4.338-2.525,8.912-3.796,13.779-3.796c0.061,0,0.092,0,0.133,0
			c4.898,0.027,9.523,1.304,13.896,3.796c4.383,2.528,7.805,5.885,10.215,10.098c2.432,4.208,3.646,8.927,3.646,14.138
			c0,5.223-1.215,9.983-3.646,14.263C219.646,108.3,216.261,111.687,211.931,114.153z"/>
		<path fill="#FFFFFF" d="M197.841,76.392l12.133,29.585l7.949-14.317l7.723-0.028c0.037-0.616,0.057-1.239,0.057-1.871
			c0-0.737-0.027-1.467-0.076-2.185l-10.094,0.043l-5.006,9.012l-12.52-30.511L186.749,91.18l-16.52-0.032
			c0.045,1.391,0.178,2.742,0.4,4.053l18.742,0.035L197.841,76.392z"/>
	</g>
	<g>
		<path fill="#231F20" d="M255.765,133.864h-23.104l12.547-13.553c3.955-4.276,6.631-7.688,8.01-10.167
			c1.389-2.513,2.064-5.19,2.064-8.05c0-4.072-1.457-7.605-4.318-10.59c-2.861-3.004-6.623-4.517-11.258-4.517
			c-1.732,0-3.367,0.246-4.908,0.673c0.014,0.459,0.027,0.925,0.027,1.38c0,1.26-0.066,2.484-0.176,3.727
			c1.42-0.647,3.014-0.96,4.754-0.96c3.07,0,5.664,1.031,7.805,3.066c2.105,2.055,3.16,4.494,3.16,7.333
			c0,2.236-0.58,4.368-1.766,6.382c-1.17,2.044-3.723,5.134-7.639,9.316l-19.281,20.855h34.049c-0.176-0.769-0.27-1.566-0.27-2.389
			C255.462,135.508,255.567,134.67,255.765,133.864z"/>
	</g>
</g>
</svg>
